<svg xmlns="http://www.w3.org/2000/svg" viewBox="0 0 306.35 303.17"><defs><style>.cls-1{fill:#fff;}.cls-2,.cls-5,.cls-9{fill:none;}.cls-2,.cls-5{stroke:#000;}.cls-2,.cls-9{stroke-linecap:round;stroke-linejoin:round;stroke-width:6.35px;}.cls-3{fill:#ffeaa7;}.cls-4{fill:#fdcb6e;}.cls-5{stroke-miterlimit:10;stroke-width:7.93px;}.cls-6{fill:#00a8ff;}.cls-7,.cls-8{fill:#0097e6;}.cls-8{opacity:0.8;isolation:isolate;}.cls-9{stroke:#fff;}.cls-10{fill:#e17055;}.cls-11{fill:#e67e22;}.cls-12{fill:#3498db;}.cls-13{fill:#f1c40f;}</style></defs><title>资源 1</title><g id="图层_2" data-name="图层 2"><g id="图层_1-2" data-name="图层 1"><g id="图层_1-2-2" data-name="图层 1-2"><polygon class="cls-1" points="133.99 40.8 137.58 46.72 124.92 54.45 107.57 76.91 100.96 98.65 98.63 119.91 98.63 147.31 98.63 180.84 98.63 204.56 102.58 222.14 109.35 226.56 100.18 228.49 85.94 218.07 81.16 195.15 81.16 171.93 79.39 150.58 81.16 126.94 81.16 106.56 84.19 85.81 94.3 65.17 109.72 49.65 133.99 40.8"/><line class="cls-2" x1="37.67" y1="300" x2="234.88" y2="300"/><line class="cls-2" x1="251.14" y1="300" x2="261.49" y2="300"/><line class="cls-2" x1="278.24" y1="300" x2="303.17" y2="300"/><line class="cls-2" x1="18.46" y1="300" x2="3.17" y2="300"/><path class="cls-3" d="M132.63,228.49h28v40.93c0,8.14-6.26,14.73-14,14.73h0c-7.73,0-14-6.59-14-14.73h0V228.49Z"/><rect class="cls-4" x="132.63" y="228.49" width="28.01" height="16.03"/><path class="cls-5" d="M132.63,228.49h28v40.93c0,8.14-6.26,14.73-14,14.73h0c-7.73,0-14-6.59-14-14.73h0V228.49Z"/><path class="cls-6" d="M225.18,106.55v96.26c0,14.18-10.92,25.68-24.4,25.68H118.65c-13.47,0-24.4-11.5-24.4-25.68V106.55c0-38,29.31-68.89,65.46-68.89S225.18,68.5,225.18,106.55Z"/><path class="cls-7" d="M146.63,37.66h0a62.32,62.32,0,0,0-9,.66C169.92,43.08,194,72.19,194,106.56v96.25c0,14.18-10.93,25.68-24.41,25.68h18.1c13.48,0,24.4-11.49,24.41-25.67h0V106.56c0-38-29.3-68.89-65.46-68.9Z"/><path class="cls-8" d="M146.63,127h0c10,0,18.18,8.56,18.18,19.13h0v82.38H128.49V146.06c0-10.56,8.14-19.12,18.17-19.12Z"/><path class="cls-9" d="M124.92,64.25c-.49.3-1,.6-1.45.92"/><path class="cls-9" d="M109.35,83.6a37.08,37.08,0,0,1,8.12-13.37"/><path class="cls-5" d="M146.63,37.66h0c36.16,0,65.47,30.84,65.47,68.89v96.26c0,14.18-10.93,25.68-24.41,25.68H105.57c-13.47,0-24.4-11.5-24.4-25.68h0V106.56c0-38,29.3-68.89,65.46-68.9Z"/><path d="M120.86,152.76c-6.39,0-6.4,10.45,0,10.45S127.26,152.76,120.86,152.76Z"/><path d="M172.41,152.76c-6.39,0-6.4,10.45,0,10.45S178.81,152.76,172.41,152.76Z"/><path d="M156.5,166.59a1.24,1.24,0,0,1,1.13,1.32.78.78,0,0,1,0,.16,11.15,11.15,0,0,1-22,0,1.25,1.25,0,0,1,1-1.46l.15,0Z"/><ellipse class="cls-10" cx="146.63" cy="173.95" rx="4.26" ry="2.1"/><path class="cls-11" d="M27.84,33.62a6.07,6.07,0,0,1-5.91-6.21,6.06,6.06,0,0,1,5.9-6.21,6.06,6.06,0,0,1,5.91,6.2h0A6.07,6.07,0,0,1,27.84,33.62Zm0-9.56A3.36,3.36,0,1,0,31,27.42h0A3.28,3.28,0,0,0,27.84,24.06Z"/><path class="cls-12" d="M233.05,58.51a8.87,8.87,0,1,1,8.43-8.86A8.66,8.66,0,0,1,233.05,58.51Zm0-13.64a4.79,4.79,0,1,0,4.56,4.78A4.67,4.67,0,0,0,233.05,44.87Z"/><path class="cls-12" d="M67.64,59.87H65.06V57.18a1.16,1.16,0,1,0-2.32,0v2.69H60.2a1.24,1.24,0,0,0,0,2.44h2.54V65a1.16,1.16,0,1,0,2.32,0V62.31h2.56a1.21,1.21,0,0,0,1-1.36,1.18,1.18,0,0,0-1-1.08Z"/><path class="cls-12" d="M267.29,111.14h-4.64v-4.89a2.12,2.12,0,1,0-4.24,0v4.89h-4.64a2.25,2.25,0,0,0,0,4.47h4.64v4.88a2.12,2.12,0,1,0,4.24,0v-4.88h4.64a2.25,2.25,0,0,0,0-4.47Z"/><path class="cls-13" d="M231.08,6.64h-4.35V2.08a2,2,0,1,0-3.95,0V6.64h-4.34a2,2,0,0,0-2.1,2,2,2,0,0,0,1.85,2.21h4.59v4.57a2,2,0,1,0,3.95,0V10.8h4.34a2,2,0,0,0,1.85-2.21,2,2,0,0,0-1.85-1.95Z"/><path class="cls-11" d="M186.22,13h-2.15V10.78a1,1,0,1,0-2,0h0V13h-2.16a1,1,0,0,0,0,2.07h2.16v2.27a1,1,0,1,0,2,0h0V15.12h2.15a1,1,0,0,0,0-2.06h0Z"/><path class="cls-11" d="M24.66,84.23c-4.25,0-4.26,7,0,7S28.91,84.23,24.66,84.23Z"/><path class="cls-11" d="M251.6,79.77c-5.47,0-5.48,9,0,9S257.09,79.77,251.6,79.77Z"/><path class="cls-13" d="M40.35,58.8c-2.8,0-2.81,4.57,0,4.57S43.15,58.8,40.35,58.8Z"/><path class="cls-13" d="M67.92,14.09a1.07,1.07,0,0,1-1-1.07V7.33a1.08,1.08,0,0,1,1-1.19,1,1,0,0,1,1.13,1,.6.6,0,0,1,0,.19V13A1.06,1.06,0,0,1,67.92,14.09Z"/><path class="cls-13" d="M65.1,15.33a1,1,0,0,1-1.48,0l-3.81-4a1.13,1.13,0,0,1,0-1.55,1,1,0,0,1,1.48,0l3.81,4A1.16,1.16,0,0,1,65.1,15.33Z"/><path class="cls-13" d="M63.92,18.3a1.08,1.08,0,0,1-1,1.1H57.46a1.07,1.07,0,0,1-1.13-1,1.08,1.08,0,0,1,1-1.19.54.54,0,0,1,.18,0h5.42a1.05,1.05,0,0,1,1,1.08Z"/><path class="cls-13" d="M65.1,21.28a1.15,1.15,0,0,1,0,1.55l-3.81,4a1,1,0,0,1-1.48,0,1.13,1.13,0,0,1,0-1.55l3.81-4A1,1,0,0,1,65.1,21.28Z"/><path class="cls-13" d="M67.92,22.51a1.06,1.06,0,0,1,1,1.09h0v5.7A1.08,1.08,0,0,1,68,30.49a1.06,1.06,0,0,1-1.13-1V23.6A1.07,1.07,0,0,1,67.92,22.51Z"/><path class="cls-13" d="M70.75,21.28a1,1,0,0,1,1.48,0l3.8,4a1.15,1.15,0,0,1,0,1.57,1,1,0,0,1-1.48,0h0l-3.81-4a1.16,1.16,0,0,1,0-1.57Z"/><path class="cls-13" d="M71.93,18.3a1.06,1.06,0,0,1,1-1.09h5.42a1,1,0,0,1,1.13,1,1.09,1.09,0,0,1-1,1.19H73a1.06,1.06,0,0,1-1-1.09Z"/><path class="cls-13" d="M70.75,15.33a1.16,1.16,0,0,1,0-1.56l3.81-4a1,1,0,0,1,1.47,0,1.13,1.13,0,0,1,0,1.55l-3.8,4A1,1,0,0,1,70.75,15.33Z"/></g></g></g></svg>