<svg xmlns="http://www.w3.org/2000/svg" viewBox="0 0 112.92 120.84"><defs><style>.cls-1{fill:#00dbff;fill-rule:evenodd;}</style></defs><title>资源 1</title><g id="图层_2" data-name="图层 2"><g id="图层_1-2" data-name="图层 1"><path class="cls-1" d="M103,83.06c1-.81,2.23-1,4-1,2.85,0,5.9,3,5.9,6.9s-2.44,7.11-6.51,7.11c-4.26,0-7.91-3.66-7.91-7.11H72.3l-12.8,19.3a6.73,6.73,0,0,1,3.86,6.49c0,3.26-3,6.1-6.9,6.1s-6.91-2.84-6.91-6.1a6.73,6.73,0,0,1,3.87-6.49L40.62,89H14.42c0,3.45-3.66,7.11-7.92,7.11C2.44,96.06,0,92.81,0,89s3-6.9,5.89-6.9c1.83,0,3.05.2,4.06,1L23.56,60.52,10,37.77c-1,.81-2.23,1-4.06,1C3,38.79,0,35.74,0,31.88S2.44,25,6.5,25c4.26,0,7.92,3.45,7.92,6.9h26.2l12.8-19.29A6.63,6.63,0,0,1,49.55,6.3c0-3.25,3.05-6.3,6.91-6.3s6.9,3.05,6.9,6.3a6.64,6.64,0,0,1-3.86,6.29L72.3,31.88H98.5c0-3.45,3.65-6.9,7.91-6.9,4.07,0,6.51,3,6.51,6.9s-3,6.91-5.9,6.91c-1.82,0-3-.21-4-1L89.36,60.52Z"/></g></g></svg>